Movie Info:
Title: Journey 2 The Mysterious Island 2012 CAM XViD - NATiON
IMDB:  http://www.imdb.com/title/tt1397514/

Plot:
Sean Anderson partners with his mom's boyfriend 
on a mission to find his grandfather, who is 
thought to be missing on a mythical island.

Source: 
Video = 26k ...... Thanks 
Audio = 26k ...... Thanks 

Release Notes:
Source was from 26k and got to say honestly
not the best video seems to be over cropped 
and has a lot of camera movement through out
the movie.....
So fixed it up as much as we could but with
out the source files to cut up into pieces was
no point in taking as much time on this as we
would if we had the raw source....
Audio is cam audio and again is your standard cam
audio.

Media Info: 

Video

Format                                   : MPEG-4 Visual
Format profile                           : Advanced Simple@L5
Format settings, BVOP                    : 2
Format settings, QPel                    : No
Format settings, GMC                     : No warppoints
Format settings, Matrix                  : Default (H.263)
Codec ID                                 : XVID
Codec ID/Hint                            : XviD
Duration                                 : 1h 29mn
Bit rate                                 : 1 749 Kbps
Width                                    : 720 pixels
Height                                   : 320 pixels
Display aspect ratio                     : 2.25:1
Frame rate                               : 29.970 fps
Color space                              : YUV
Chroma subsampling                       : 4:2:0
Bit depth                                : 8 bits
Scan type                                : Progressive
Compression mode                         : Lossy
Bits/(Pixel*Frame)                       : 0.253
Stream size                              : 1.09 GiB (93%)
Writing library                          : XviD 64

Audio
ID                                       : 1
Format                                   : MPEG Audio
Format version                           : Version 1
Format profile                           : Layer 3
Codec ID                                 : 55
Codec ID/Hint                            : MP3
Duration                                 : 1h 29mn
Source duration                          : 1h 29mn
Bit rate mode                            : Constant
Bit rate                                 : 128 Kbps
Channel(s)                               : 2 channels
Sampling rate                            : 44.1 KHz
Compression mode                         : Lossy
Stream size                              : 81.6 MiB (7%)
Alignment                                : Split accross interleaves
Interleave, duration                     : 26 ms (0.78 video frame)
